<svg width="38" height="38" viewBox="0 0 38 38" fill="none" xmlns="http://www.w3.org/2000/svg">
    <path
        d="M14.0966 10C13.5707 10 13.1445 10.4262 13.1445 10.9521V26.1897C13.1445 26.7156 13.5707 27.1419 14.0966 27.1419H25.0483C25.5742 27.1419 26.0004 26.7156 26.0004 26.1897V14.4104L21.41 10H14.0966Z"
        fill="#185ABD" />
    <path
        d="M25.9995 14.4104H22.3613C21.8354 14.4104 21.4092 13.9839 21.4092 13.458V10L25.9995 14.4104Z"
        fill="#2B7CD3" />
    <path
        d="M21.2193 20.6042C21.2193 21.2113 20.7273 21.7033 20.1207 21.7033H12.0986C11.4915 21.7033 11 21.2113 11 20.6042V17.2467C11 16.6397 11.4916 16.1477 12.0986 16.1477H20.1207C20.7273 16.1477 21.2193 16.6397 21.2193 17.2467V20.6042Z"
        fill="#2B7CD3" />
    <path
        d="M13.8159 17.9674C14.3909 17.9674 14.8555 18.3246 14.8555 18.975C14.8555 19.6428 14.3909 20 13.8159 20H13.3891C13.2642 20 13.1742 19.91 13.1742 19.7851V18.1823C13.1742 18.0574 13.2642 17.9674 13.3891 17.9674H13.8159ZM13.8159 19.669C14.2254 19.669 14.4635 19.4599 14.4635 18.975C14.4635 18.5075 14.2254 18.2984 13.8159 18.2984H13.5662V19.669H13.8159ZM16.1264 17.9471C16.6375 17.9471 17.1398 18.371 17.1398 18.9837C17.1398 19.5964 16.6375 20.0203 16.1264 20.0203C15.6183 20.0203 15.116 19.5964 15.116 18.9837C15.116 18.371 15.6183 17.9471 16.1264 17.9471ZM16.1264 18.3188C15.807 18.3188 15.5254 18.5859 15.5254 18.9837C15.5254 19.3815 15.807 19.6487 16.1264 19.6487C16.4488 19.6487 16.7304 19.3815 16.7304 18.9837C16.7304 18.5859 16.4517 18.3188 16.1264 18.3188ZM18.9282 19.4889C19.0211 19.4889 19.1111 19.5528 19.1111 19.6661C19.1111 19.7619 19.0443 19.8258 18.9369 19.8955C18.8149 19.971 18.6552 20.0203 18.4578 20.0203C17.9438 20.0203 17.4298 19.5964 17.4298 18.9837C17.4298 18.371 17.9467 17.9471 18.452 17.9471C18.6552 17.9471 18.8149 17.9993 18.9369 18.0719C19.0443 18.1416 19.1111 18.2055 19.1111 18.3013C19.1111 18.4146 19.0211 18.4785 18.9282 18.4785C18.8556 18.4785 18.8033 18.4407 18.7714 18.4175C18.7278 18.3884 18.6204 18.3188 18.4578 18.3188C18.1296 18.3188 17.8393 18.6091 17.8393 18.9837C17.8393 19.3583 18.1267 19.6487 18.4607 19.6487C18.6175 19.6487 18.7278 19.579 18.7714 19.5499C18.8033 19.5267 18.8527 19.4889 18.9282 19.4889Z"
        fill="white" />
</svg>
    