<svg width="38" height="38" viewBox="0 0 38 38" fill="none" xmlns="http://www.w3.org/2000/svg">
    <g filter="url(#filter0_d_2496_3678)">
        <path
            d="M23.568 10.4243L27.3932 14.4118V29.5753H13.1035V29.6248H27.442V14.462L23.568 10.4243Z"
            fill="#909090" />
    </g>
    <path d="M23.5205 10.375H13.0547V29.5755H27.3932V14.4127L23.5205 10.375Z" fill="white" />
    <path d="M12.9498 11.4062H8.55664V16.0998H22.3754V11.4062H12.9498Z" fill="#7A7B7C" />
    <path d="M22.4494 16.0202H8.64648V11.3232H22.4494V16.0202Z" fill="#DD2025" />
    <path
        d="M13.2228 12.1173H12.3242V15.4173H13.031V14.3043L13.187 14.3132C13.3387 14.3106 13.4889 14.2834 13.6318 14.2328C13.7572 14.1897 13.8725 14.1216 13.9708 14.0327C14.0708 13.948 14.1497 13.8412 14.2011 13.7206C14.27 13.5202 14.2947 13.3072 14.2733 13.0963C14.269 12.9457 14.2426 12.7965 14.1949 12.6536C14.1515 12.5504 14.0871 12.4574 14.0058 12.3804C13.9245 12.3035 13.828 12.2443 13.7226 12.2067C13.6314 12.1737 13.5373 12.1498 13.4414 12.1352C13.3688 12.124 13.2955 12.118 13.2221 12.1173M13.0922 13.6945H13.031V12.677H13.1637C13.2222 12.6727 13.281 12.6817 13.3356 12.7033C13.3902 12.7248 13.4393 12.7583 13.4792 12.8014C13.5619 12.9121 13.6061 13.0468 13.605 13.185C13.605 13.3542 13.605 13.5075 13.4524 13.6154C13.3425 13.6759 13.2173 13.7038 13.0922 13.6945ZM15.616 12.1084C15.5397 12.1084 15.4654 12.1139 15.4132 12.116L15.2495 12.1201H14.7133V15.4201H15.3444C15.5856 15.4267 15.8257 15.3858 16.0512 15.2998C16.2326 15.2278 16.3933 15.1118 16.5187 14.9622C16.6406 14.8113 16.7281 14.6355 16.7751 14.4473C16.8291 14.2341 16.8554 14.0148 16.8535 13.7948C16.8668 13.5351 16.8467 13.2747 16.7937 13.02C16.7433 12.8326 16.649 12.6598 16.5187 12.5161C16.4164 12.4 16.2911 12.3064 16.1508 12.2411C16.0304 12.1853 15.9037 12.1443 15.7734 12.1187C15.7216 12.1102 15.6692 12.1063 15.6167 12.107M15.4915 14.8137H15.4228V12.7072H15.4317C15.5735 12.6909 15.7169 12.7165 15.8442 12.7808C15.9375 12.8553 16.0135 12.9491 16.067 13.0558C16.1247 13.1681 16.158 13.2913 16.1646 13.4174C16.1708 13.5687 16.1646 13.6924 16.1646 13.7948C16.1674 13.9128 16.1598 14.0309 16.1419 14.1475C16.1207 14.2673 16.0815 14.3832 16.0257 14.4913C15.9625 14.5918 15.8772 14.6764 15.7762 14.7388C15.6913 14.7936 15.5909 14.8192 15.4902 14.8117M18.9827 12.1201H17.312V15.4201H18.0188V14.1111H18.9125V13.4978H18.0188V12.7333H18.9813V12.1201"
        fill="#464648" />
    <path
        d="M21.9735 22.9253C21.9735 22.9253 24.1652 22.5279 24.1652 23.2766C24.1652 24.0253 22.8074 23.7207 21.9735 22.9253ZM20.3531 22.9824C20.0048 23.0593 19.6655 23.172 19.3404 23.3185L19.6154 22.6998C19.8904 22.081 20.1757 21.2375 20.1757 21.2375C20.5038 21.7898 20.8856 22.3084 21.3156 22.7857C20.9913 22.8341 20.67 22.9002 20.3531 22.9837V22.9824ZM19.4854 18.5136C19.4854 17.8612 19.6965 17.6831 19.8608 17.6831C20.0251 17.6831 20.2101 17.7622 20.2162 18.3287C20.1627 18.8983 20.0434 19.4598 19.8608 20.002C19.6106 19.5468 19.4812 19.0351 19.4847 18.5157L19.4854 18.5136ZM16.2892 25.7434C15.6169 25.3412 17.6993 24.103 18.0767 24.0631C18.0747 24.0638 16.9932 26.1641 16.2892 25.7434ZM24.8053 23.3653C24.7984 23.2965 24.7366 22.5355 23.3822 22.5678C22.8177 22.5587 22.2534 22.5985 21.6957 22.6867C21.1555 22.1425 20.6904 21.5287 20.3125 20.8614C20.5506 20.1735 20.6946 19.4566 20.7408 18.7302C20.7209 17.9052 20.5236 17.4322 19.8911 17.439C19.2586 17.4459 19.1664 17.9994 19.2496 18.823C19.3311 19.3764 19.4848 19.9168 19.7068 20.4304C19.7068 20.4304 19.4146 21.3399 19.0282 22.2447C18.6419 23.1494 18.3779 23.6238 18.3779 23.6238C17.706 23.8425 17.0735 24.1675 16.5044 24.5863C15.9379 25.1136 15.7076 25.5185 16.006 25.9235C16.2631 26.2727 17.1631 26.3518 17.9674 25.2979C18.3948 24.7535 18.7853 24.1811 19.1362 23.5846C19.1362 23.5846 20.3627 23.2484 20.7442 23.1563C21.1258 23.0642 21.5871 22.9913 21.5871 22.9913C21.5871 22.9913 22.7071 24.1181 23.7871 24.0782C24.8672 24.0384 24.8149 23.4327 24.8081 23.3667"
        fill="#DD2025" />
    <path d="M23.4678 10.4282V14.4659H27.3405L23.4678 10.4282Z" fill="#909090" />
    <path d="M23.5205 10.375V14.4127H27.3932L23.5205 10.375Z" fill="#F4F4F4" />
    <path
        d="M13.17 12.0641H12.2715V15.3641H12.981V14.2517L13.1377 14.2607C13.2894 14.2581 13.4396 14.2309 13.5825 14.1802C13.7079 14.1371 13.8232 14.0691 13.9215 13.9802C14.0208 13.8953 14.0989 13.7884 14.1497 13.6681C14.2187 13.4677 14.2433 13.2547 14.2219 13.0438C14.2176 12.8932 14.1912 12.744 14.1435 12.6011C14.1001 12.4979 14.0357 12.4048 13.9544 12.3279C13.8731 12.251 13.7767 12.1918 13.6712 12.1542C13.5797 12.1209 13.485 12.0967 13.3887 12.082C13.3161 12.0708 13.2428 12.0648 13.1694 12.0641M13.0394 13.6412H12.9782V12.6237H13.1116C13.1702 12.6195 13.2289 12.6285 13.2836 12.6501C13.3382 12.6716 13.3873 12.7051 13.4272 12.7482C13.5099 12.8589 13.5541 12.9936 13.553 13.1318C13.553 13.3009 13.553 13.4542 13.4004 13.5622C13.2904 13.6227 13.1652 13.6499 13.0401 13.6406M15.5632 12.0552C15.4869 12.0552 15.4127 12.0607 15.3604 12.0627L15.1989 12.0669H14.6626V15.3669H15.2937C15.5349 15.3735 15.7751 15.3326 16.0005 15.2466C16.1819 15.1746 16.3426 15.0586 16.468 14.909C16.5899 14.7581 16.6774 14.5823 16.7244 14.3941C16.7784 14.1808 16.8048 13.9616 16.8028 13.7416C16.8161 13.4819 16.796 13.2215 16.743 12.9668C16.6926 12.7794 16.5984 12.6066 16.468 12.4629C16.3657 12.3468 16.2404 12.2532 16.1002 12.1879C15.9797 12.1321 15.853 12.091 15.7227 12.0655C15.6709 12.0569 15.6185 12.053 15.566 12.0538M15.4409 14.7605H15.3721V12.654H15.381C15.5228 12.6377 15.6662 12.6633 15.7935 12.7276C15.8868 12.802 15.9628 12.8959 16.0163 13.0026C16.074 13.1149 16.1073 13.2381 16.1139 13.3642C16.1201 13.5154 16.1139 13.6392 16.1139 13.7416C16.1167 13.8596 16.1091 13.9776 16.0912 14.0943C16.07 14.2141 16.0309 14.33 15.975 14.4381C15.9119 14.5385 15.8265 14.6232 15.7255 14.6856C15.6407 14.7404 15.5402 14.766 15.4395 14.7584M18.9299 12.0669H17.2593V15.3669H17.966V14.0579H18.8598V13.4446H17.966V12.6801H18.9285V12.0669"
        fill="white" />
    <defs>
        <filter id="filter0_d_2496_3678" x="9.10352" y="10.4243" width="22.3389" height="27.2004"
            filterUnits="userSpaceOnUse" color-interpolation-filters="sRGB">
            <feFlood flood-opacity="0" result="BackgroundImageFix" />
            <feColorMatrix in="SourceAlpha" type="matrix"
                values="0 0 0 0 0 0 0 0 0 0 0 0 0 0 0 0 0 0 127 0" result="hardAlpha" />
            <feOffset dy="4" />
            <feGaussianBlur stdDeviation="2" />
            <feComposite in2="hardAlpha" operator="out" />
            <feColorMatrix type="matrix" values="0 0 0 0 0 0 0 0 0 0 0 0 0 0 0 0 0 0 0.25 0" />
            <feBlend mode="normal" in2="BackgroundImageFix" result="effect1_dropShadow_2496_3678" />
            <feBlend mode="normal" in="SourceGraphic" in2="effect1_dropShadow_2496_3678"
                result="shape" />
        </filter>
    </defs>
</svg>
    