<svg width="38" height="38" viewBox="0 0 38 38" fill="none" xmlns="http://www.w3.org/2000/svg">
    <path
        d="M14.0957 10C13.57 10 13.1436 10.4265 13.1436 10.9524V26.1895C13.1436 26.7154 13.57 27.1417 14.0957 27.1417H25.0476C25.5734 27.1417 25.9997 26.7154 25.9997 26.1895V14.4101L21.4094 10H14.0957Z"
        fill="#E23A37" />
    <path
        d="M26.0004 14.4101H22.3623C21.8364 14.4101 21.4102 13.9837 21.4102 13.4578V10L26.0004 14.4101Z"
        fill="#C93332" />
    <path
        d="M21.2196 20.6038C21.2196 21.2108 20.7276 21.7028 20.1208 21.7028H12.0988C11.4918 21.7028 11 21.2108 11 20.6038V17.2465C11 16.6395 11.4918 16.1477 12.0988 16.1477H20.1208C20.7276 16.1477 21.2196 16.6395 21.2196 17.2465V20.6038Z"
        fill="#FF6766" />
    <path
        d="M14.1082 19.2867H13.6938V19.9191C13.6938 20.0096 13.6724 20.0781 13.6298 20.1249C13.5872 20.1717 13.5333 20.1949 13.4681 20.1949C13.3999 20.1949 13.3451 20.1717 13.3036 20.1256C13.2622 20.0794 13.2412 20.0114 13.2412 19.922V18.2002C13.2412 18.1005 13.2641 18.0294 13.3098 17.9868C13.3555 17.9442 13.4282 17.9229 13.5278 17.9229H14.1084C14.2802 17.9229 14.412 17.936 14.5045 17.9625C14.5959 17.988 14.675 18.0301 14.7414 18.089C14.8079 18.1478 14.8583 18.22 14.893 18.3054C14.9277 18.3908 14.9447 18.4866 14.9447 18.5934C14.9447 18.821 14.8747 18.9933 14.7345 19.1108C14.5943 19.2283 14.3855 19.2867 14.1082 19.2867ZM13.9985 18.2626H13.6938V18.9454H13.9985C14.1053 18.9454 14.1942 18.9343 14.266 18.912C14.3373 18.8897 14.392 18.8532 14.4296 18.8023C14.4673 18.7515 14.486 18.6851 14.486 18.6026C14.486 18.504 14.4571 18.4238 14.3991 18.3618C14.3342 18.2956 14.2007 18.2626 13.9985 18.2626Z"
        fill="white" />
    <path
        d="M16.1902 19.2867H15.7758V19.9191C15.7758 20.0096 15.7544 20.0781 15.7118 20.1249C15.6692 20.1717 15.6153 20.1949 15.5502 20.1949C15.482 20.1949 15.4271 20.1717 15.3857 20.1256C15.3442 20.0794 15.3232 20.0114 15.3232 19.922V18.2002C15.3232 18.1005 15.3462 18.0294 15.3919 17.9868C15.4376 17.9442 15.5103 17.9229 15.6099 17.9229H16.1904C16.3623 17.9229 16.494 17.936 16.5865 17.9625C16.6779 17.988 16.757 18.0301 16.8235 18.089C16.8899 18.1478 16.9403 18.22 16.975 18.3054C17.0098 18.3908 17.0268 18.4866 17.0268 18.5934C17.0268 18.821 16.9567 18.9933 16.8166 19.1108C16.6764 19.2283 16.4676 19.2867 16.1902 19.2867ZM16.0805 18.2626H15.7758V18.9454H16.0805C16.1873 18.9454 16.2762 18.9343 16.348 18.912C16.4194 18.8897 16.474 18.8532 16.5116 18.8023C16.5493 18.7515 16.5681 18.6851 16.5681 18.6026C16.5681 18.504 16.5391 18.4238 16.4811 18.3618C16.4161 18.2956 16.2827 18.2626 16.0805 18.2626Z"
        fill="white" />
    <path
        d="M18.8546 18.2962H18.3608V19.9191C18.3608 20.0125 18.3399 20.0819 18.2984 20.1271C18.2569 20.1723 18.2028 20.1949 18.1368 20.1949C18.0697 20.1949 18.015 20.172 17.9729 20.1263C17.931 20.0806 17.9098 20.0115 17.9098 19.9189V18.296H17.416C17.3387 18.296 17.2814 18.2791 17.2439 18.245C17.2064 18.2109 17.1875 18.166 17.1875 18.1101C17.1875 18.0521 17.2071 18.0064 17.2464 17.973C17.2854 17.9396 17.342 17.9226 17.4162 17.9226H18.8548C18.933 17.9226 18.991 17.94 19.0293 17.9743C19.0672 18.0089 19.0864 18.0542 19.0864 18.1099C19.0864 18.1656 19.067 18.2106 19.0285 18.2447C18.9899 18.2788 18.9319 18.2962 18.8546 18.2962Z"
        fill="white" />
</svg>
    