<svg width="38" height="38" viewBox="0 0 38 38" fill="none" xmlns="http://www.w3.org/2000/svg">
    <path
        d="M15.0966 10C14.5707 10 14.1445 10.4262 14.1445 10.9521V26.1897C14.1445 26.7156 14.5707 27.1419 15.0966 27.1419H26.0483C26.5742 27.1419 27.0004 26.7156 27.0004 26.1897V14.4104L22.41 10H15.0966Z"
        fill="#107C41" />
    <path
        d="M26.9995 14.4104H23.3613C22.8354 14.4104 22.4092 13.9839 22.4092 13.458V10L26.9995 14.4104Z"
        fill="#185C37" />
    <path
        d="M22.2193 20.6042C22.2193 21.2113 21.7273 21.7033 21.1207 21.7033H13.0986C12.4915 21.7033 12 21.2113 12 20.6042V17.2467C12 16.6397 12.4916 16.1477 13.0986 16.1477H21.1207C21.7273 16.1477 22.2193 16.6397 22.2193 17.2467V20.6042Z"
        fill="#185C37" />
    <path
        d="M14.3496 19.7231L14.8494 18.9932L14.4288 18.3441C14.3891 18.281 14.3592 18.2271 14.3398 18.1818C14.3197 18.1365 14.31 18.0933 14.31 18.0516C14.31 18.009 14.3289 17.9707 14.3673 17.9366C14.4052 17.9025 14.4517 17.8855 14.5066 17.8855C14.5695 17.8855 14.6185 17.904 14.6538 17.9412C14.6886 17.9784 14.7371 18.0471 14.7991 18.1476L15.1344 18.6902L15.4925 18.1476C15.5219 18.1019 15.5471 18.0629 15.568 18.0304C15.5887 17.9979 15.6088 17.9709 15.6282 17.9497C15.6476 17.9285 15.6692 17.9124 15.693 17.9018C15.7167 17.891 15.7443 17.8857 15.776 17.8857C15.8328 17.8857 15.8794 17.9027 15.9155 17.9368C15.9514 17.9709 15.9695 18.0113 15.9695 18.0579C15.9695 18.1258 15.9302 18.2184 15.8522 18.3352L15.4117 18.9935L15.8857 19.7233C15.9283 19.7873 15.9592 19.8404 15.9786 19.8825C15.998 19.9247 16.0076 19.9646 16.0076 20.0022C16.0076 20.0379 15.9989 20.0702 15.9817 20.0999C15.9645 20.1295 15.94 20.1527 15.9086 20.1699C15.8771 20.187 15.8415 20.1957 15.8018 20.1957C15.7592 20.1957 15.7229 20.1868 15.6937 20.169C15.6645 20.1512 15.6404 20.1291 15.6222 20.1028C15.6039 20.0765 15.57 20.025 15.52 19.949L15.1268 19.3304L14.7093 19.9673C14.6768 20.0181 14.6538 20.0535 14.6398 20.074C14.6262 20.0943 14.6097 20.1142 14.5903 20.1335C14.5708 20.153 14.5481 20.1681 14.5216 20.1792C14.4951 20.1904 14.4641 20.196 14.4287 20.196C14.3739 20.196 14.3284 20.1792 14.2923 20.1456C14.2564 20.1122 14.2383 20.0633 14.2383 19.9993C14.2384 19.9238 14.2754 19.8319 14.3496 19.7231Z"
        fill="white" />
    <path
        d="M16.7592 18.1594V19.7854H17.6765C17.7496 19.7854 17.8058 19.8032 17.8448 19.8387C17.8841 19.8744 17.9037 19.9189 17.9037 19.9729C17.9037 20.0277 17.8843 20.0721 17.8457 20.1062C17.8072 20.1403 17.7507 20.1573 17.6765 20.1573H16.584C16.4854 20.1573 16.4145 20.1354 16.3715 20.0918C16.3283 20.0481 16.3066 19.9774 16.3066 19.88V18.1594C16.3066 18.068 16.3271 17.9993 16.3684 17.9536C16.4094 17.9079 16.4636 17.885 16.5307 17.885C16.5989 17.885 16.6539 17.9078 16.6959 17.9527C16.738 17.9982 16.7592 18.0671 16.7592 18.1594Z"
        fill="white" />
    <path
        d="M19.7802 19.4868C19.7802 19.6219 19.7454 19.7434 19.6759 19.8511C19.6061 19.9587 19.5042 20.043 19.3702 20.1041C19.2362 20.1652 19.0773 20.1955 18.8932 20.1955C18.6727 20.1955 18.4908 20.1538 18.3477 20.0704C18.2461 20.0104 18.1635 19.9304 18.1003 19.8303C18.0368 19.7302 18.0049 19.6331 18.0049 19.5385C18.0049 19.4837 18.0241 19.4366 18.062 19.3976C18.1003 19.3586 18.1487 19.339 18.2075 19.339C18.2552 19.339 18.2958 19.3541 18.3288 19.3847C18.3616 19.4153 18.3899 19.4602 18.4133 19.5202C18.4418 19.5914 18.4726 19.6507 18.5056 19.6986C18.5383 19.7463 18.5849 19.7857 18.6449 19.8167C18.7049 19.8477 18.7836 19.863 18.8812 19.863C19.0154 19.863 19.1244 19.8318 19.208 19.7694C19.2921 19.707 19.3337 19.629 19.3337 19.5355C19.3337 19.4613 19.3109 19.4011 19.2657 19.355C19.2207 19.3086 19.1621 19.2734 19.0907 19.2491C19.019 19.2248 18.9233 19.1987 18.8034 19.1713C18.6429 19.1338 18.5087 19.0897 18.4001 19.0396C18.2922 18.9892 18.2062 18.9208 18.1429 18.8338C18.0794 18.7469 18.0475 18.639 18.0475 18.5099C18.0475 18.387 18.0809 18.2776 18.148 18.1822C18.2151 18.0868 18.3121 18.0132 18.4392 17.9619C18.5663 17.9106 18.7154 17.885 18.8873 17.885C19.0244 17.885 19.143 17.9019 19.2433 17.9361C19.3432 17.9701 19.4263 18.0152 19.4924 18.0716C19.5584 18.128 19.6067 18.1873 19.637 18.249C19.6673 18.3108 19.6827 18.3714 19.6827 18.4303C19.6827 18.4842 19.6638 18.5326 19.6254 18.5758C19.5875 18.6191 19.5398 18.6407 19.4829 18.6407C19.4312 18.6407 19.3918 18.6278 19.365 18.6019C19.3381 18.5761 19.3089 18.5335 19.2772 18.4746C19.2364 18.3903 19.1879 18.3246 19.131 18.2773C19.0741 18.2301 18.9827 18.2064 18.8568 18.2064C18.74 18.2064 18.6459 18.232 18.5739 18.2833C18.5026 18.3346 18.4667 18.3964 18.4667 18.4686C18.4667 18.5134 18.4789 18.5519 18.5033 18.5845C18.5276 18.617 18.5612 18.6449 18.6038 18.6683C18.6464 18.6918 18.6897 18.71 18.7333 18.7231C18.777 18.7363 18.8493 18.7557 18.9498 18.7811C19.0757 18.8105 19.1896 18.8431 19.292 18.8788C19.3939 18.9145 19.481 18.9575 19.5524 19.0083C19.6241 19.0591 19.6798 19.1233 19.72 19.2011C19.7603 19.2788 19.7802 19.3743 19.7802 19.4868Z"
        fill="white" />
</svg>
    