<svg width="38" height="38" viewBox="0 0 38 38" fill="none" xmlns="http://www.w3.org/2000/svg">
    <path
        d="M24.5 15.5H27.5V22.5H24.5V15.5ZM10.5 15.5H13.5V22.5H10.5V15.5ZM14.5 15.5H23.5V22.5H14.5V15.5Z"
        fill="#BBDDF5" />
    <path
        d="M27.5 15.5V13H10.5V15.5H13.5V22.5H10.5V25H27.5V22.5H24.5V15.5H27.5ZM23.5 22.5H14.5V15.5H23.5V22.5Z"
        fill="#231F20" />
    <path
        d="M25.5 13.5H26.5V15H25.5V13.5ZM23.5 13.5H24.5V15H23.5V13.5ZM21.5 13.5H22.5V15H21.5V13.5ZM19.5 13.5H20.5V15H19.5V13.5ZM17.5 13.5H18.5V15H17.5V13.5ZM15.5 13.5H16.5V15H15.5V13.5ZM13.5 13.5H14.5V15H13.5V13.5ZM11.5 13.5H12.5V15H11.5V13.5ZM25.5 23H26.5V24.5H25.5V23ZM23.5 23H24.5V24.5H23.5V23ZM21.5 23H22.5V24.5H21.5V23ZM19.5 23H20.5V24.5H19.5V23ZM17.5 23H18.5V24.5H17.5V23ZM15.5 23H16.5V24.5H15.5V23ZM13.5 23H14.5V24.5H13.5V23ZM11.5 23H12.5V24.5H11.5V23Z"
        fill="#F5F8FA" />
    <path d="M24.5 22.5V15.5H25V22.5H24.5ZM14.5 22.5V15.5H15V22.5H14.5Z" fill="#88C9F9" />
</svg>